<svg xmlns="http://www.w3.org/2000/svg" width="1280" height="520" viewBox="0 0 1280 520" role="img" aria-labelledby="title desc">
  <title id="title">ForgedTTC product overview</title>
  <desc id="desc">A visual overview of the ForgedTTC evidence loop from prompt to validated model, simulation, scorecard, quote links, field logs, and repair sheets.</desc>
  <defs>
    <linearGradient id="bg" x1="0" y1="0" x2="1" y2="1">
      <stop offset="0" stop-color="#10161f"/>
      <stop offset="0.48" stop-color="#172331"/>
      <stop offset="1" stop-color="#16241e"/>
    </linearGradient>
    <linearGradient id="accent" x1="0" y1="0" x2="1" y2="0">
      <stop offset="0" stop-color="#39c8ff"/>
      <stop offset="0.55" stop-color="#7dd87d"/>
      <stop offset="1" stop-color="#f5c36a"/>
    </linearGradient>
    <linearGradient id="panel" x1="0" y1="0" x2="0" y2="1">
      <stop offset="0" stop-color="#223044" stop-opacity="0.92"/>
      <stop offset="1" stop-color="#121923" stop-opacity="0.96"/>
    </linearGradient>
    <pattern id="grid" width="40" height="40" patternUnits="userSpaceOnUse">
      <path d="M 40 0 L 0 0 0 40" fill="none" stroke="#ffffff" stroke-opacity="0.055" stroke-width="1"/>
    </pattern>
    <filter id="shadow" x="-20%" y="-20%" width="140%" height="140%">
      <feDropShadow dx="0" dy="16" stdDeviation="20" flood-color="#000000" flood-opacity="0.35"/>
    </filter>
    <style>
      .title { font: 800 78px ui-sans-serif, system-ui, -apple-system, BlinkMacSystemFont, "Segoe UI", sans-serif; letter-spacing: -1px; fill: #f5f7fb; }
      .subtitle { font: 500 27px ui-sans-serif, system-ui, -apple-system, BlinkMacSystemFont, "Segoe UI", sans-serif; fill: #cbd8e7; }
      .small { font: 600 18px ui-sans-serif, system-ui, -apple-system, BlinkMacSystemFont, "Segoe UI", sans-serif; fill: #9fb2c8; }
      .chip { font: 700 17px ui-sans-serif, system-ui, -apple-system, BlinkMacSystemFont, "Segoe UI", sans-serif; fill: #e9f2ff; }
      .node { font: 700 19px ui-sans-serif, system-ui, -apple-system, BlinkMacSystemFont, "Segoe UI", sans-serif; fill: #ecf5ff; }
      .muted { font: 600 14px ui-sans-serif, system-ui, -apple-system, BlinkMacSystemFont, "Segoe UI", sans-serif; fill: #9fb2c8; }
    </style>
  </defs>

  <rect width="1280" height="520" rx="34" fill="url(#bg)"/>
  <rect width="1280" height="520" rx="34" fill="url(#grid)"/>
  <path d="M0 410 C180 360 290 470 455 410 C675 330 792 228 1010 270 C1145 296 1215 235 1280 190 L1280 520 L0 520 Z" fill="#39c8ff" opacity="0.08"/>
  <path d="M0 455 C220 385 350 505 550 440 C760 372 828 308 1017 335 C1155 355 1232 315 1280 278 L1280 520 L0 520 Z" fill="#7dd87d" opacity="0.08"/>

  <g transform="translate(68 66)">
    <rect x="0" y="0" width="510" height="388" rx="28" fill="#0d131b" opacity="0.58" stroke="#ffffff" stroke-opacity="0.12"/>
    <text x="32" y="82" class="title">ForgedTTC</text>
    <text x="36" y="132" class="subtitle">Robots that carry their evidence.</text>
    <text x="36" y="174" class="small">Prompt, validate, simulate, train, quote, log, repair.</text>

    <g transform="translate(34 224)">
      <rect x="0" y="0" width="132" height="42" rx="21" fill="#39c8ff" fill-opacity="0.14" stroke="#39c8ff" stroke-opacity="0.55"/>
      <text x="26" y="27" class="chip">validate</text>
      <rect x="148" y="0" width="102" height="42" rx="21" fill="#7dd87d" fill-opacity="0.14" stroke="#7dd87d" stroke-opacity="0.55"/>
      <text x="181" y="27" class="chip">train</text>
      <rect x="266" y="0" width="134" height="42" rx="21" fill="#f5c36a" fill-opacity="0.14" stroke="#f5c36a" stroke-opacity="0.55"/>
      <text x="296" y="27" class="chip">repair</text>
    </g>

    <g transform="translate(34 306)">
      <rect x="0" y="0" width="438" height="48" rx="14" fill="#111a25" stroke="#ffffff" stroke-opacity="0.12"/>
      <text x="20" y="30" class="small">D30 lab signoff: D12 rigs only</text>
    </g>
  </g>

  <g transform="translate(640 66)" filter="url(#shadow)">
    <rect x="0" y="0" width="572" height="388" rx="28" fill="url(#panel)" stroke="#ffffff" stroke-opacity="0.13"/>
    <rect x="42" y="50" width="152" height="70" rx="18" fill="#111b26" stroke="#39c8ff" stroke-opacity="0.6"/>
    <text x="70" y="82" class="node">Intent</text>
    <text x="70" y="104" class="muted">brief/photo/import</text>

    <rect x="232" y="50" width="152" height="70" rx="18" fill="#111b26" stroke="#7dd87d" stroke-opacity="0.6"/>
    <text x="260" y="82" class="node">ModelSpec</text>
    <text x="260" y="104" class="muted">typed contract</text>

    <rect x="42" y="166" width="152" height="70" rx="18" fill="#111b26" stroke="#7dd87d" stroke-opacity="0.6"/>
    <text x="70" y="198" class="node">Validator</text>
    <text x="70" y="220" class="muted">gatekeeper</text>

    <rect x="232" y="166" width="152" height="70" rx="18" fill="#111b26" stroke="#39c8ff" stroke-opacity="0.6"/>
    <text x="260" y="198" class="node">Sim + train</text>
    <text x="260" y="220" class="muted">scorecards</text>

    <rect x="422" y="166" width="108" height="70" rx="18" fill="#111b26" stroke="#f5c36a" stroke-opacity="0.72"/>
    <text x="450" y="198" class="node">Build</text>
    <text x="450" y="220" class="muted">quotes</text>

    <rect x="232" y="282" width="152" height="70" rx="18" fill="#111b26" stroke="#f5c36a" stroke-opacity="0.72"/>
    <text x="260" y="314" class="node">Field log</text>
    <text x="260" y="336" class="muted">ghost + repair</text>

    <path d="M194 85 L232 85" stroke="url(#accent)" stroke-width="4" stroke-linecap="round"/>
    <path d="M308 120 L154 166" stroke="url(#accent)" stroke-width="4" stroke-linecap="round"/>
    <path d="M194 201 L232 201" stroke="url(#accent)" stroke-width="4" stroke-linecap="round"/>
    <path d="M384 201 L422 201" stroke="url(#accent)" stroke-width="4" stroke-linecap="round"/>
    <path d="M308 236 L308 282" stroke="url(#accent)" stroke-width="4" stroke-linecap="round"/>
    <path d="M232 317 C120 318 88 258 112 236" fill="none" stroke="url(#accent)" stroke-width="4" stroke-linecap="round"/>
  </g>
</svg>
